<svg width="205" height="205" viewBox="0 0 205 205" fill="none" xmlns="http://www.w3.org/2000/svg">
<mask id="mask0_12915_30707" style="mask-type:alpha" maskUnits="userSpaceOnUse" x="0" y="0" width="205" height="205">
<rect width="204.02" height="204.02" fill="#D9D9D9"/>
</mask>
<g mask="url(#mask0_12915_30707)">
<path d="M49.8789 125.943C51.8617 130.66 51.1061 137.838 55.1048 138.62C58.6615 139.349 60.5504 137.838 59.5582 133.682C59.0615 130.95 54.8838 126.882 49.8789 125.943Z" fill="url(#paint0_linear_12915_30707)"/>
<path d="M39.7266 141.559C44.1652 139.988 53.7513 137.082 56.6317 139.61C58.2846 141.615 56.6327 143.778 55.1206 144.671C50.5745 147.356 41.3564 142.799 39.7266 141.559Z" fill="url(#paint1_linear_12915_30707)"/>
<path d="M23.9189 136.843C30.8766 134.888 31.2216 127.921 42.8327 133.627C37.6892 143.318 26.7295 139.817 23.9189 136.843Z" fill="url(#paint2_linear_12915_30707)"/>
<path d="M35.125 119.705C35.9326 126.656 33.3503 130.283 43.1821 132.904C46.9501 123.105 37.0014 122.273 35.125 119.705Z" fill="url(#paint3_linear_12915_30707)"/>
<path d="M11.8318 123.331C17.8608 124.771 21.0288 119.696 27.3442 128.82C19.4438 133.932 12.6954 126.732 11.8318 123.331Z" fill="url(#paint4_linear_12915_30707)"/>
<path d="M27.3867 115.172C25.0888 120.716 21.6398 122.355 27.9105 128.425C34.8255 122.657 27.7199 117.879 27.3867 115.172Z" fill="url(#paint5_linear_12915_30707)"/>
<path d="M6.83099 111.926C11.8819 114.317 15.6191 110.428 19.4955 119.65C11.5769 122.692 6.96099 115.087 6.83099 111.926Z" fill="url(#paint6_linear_12915_30707)"/>
<path d="M22.0664 107.617C19.0095 112.081 15.6626 112.886 20.0669 119.405C27.2381 115.602 21.8575 110.068 22.0664 107.617Z" fill="url(#paint7_linear_12915_30707)"/>
<path d="M4.77712 101.571C8.39691 104.013 11.7425 101.45 13.6494 109.031C7.17357 110.447 4.50472 104.028 4.77712 101.571Z" fill="url(#paint8_linear_12915_30707)"/>
<path d="M17.0547 100.039C14.1668 103.127 11.4864 103.354 14.1198 108.909C20.1081 106.817 16.6043 101.907 17.0547 100.039Z" fill="url(#paint9_linear_12915_30707)"/>
<path d="M4.99098 90.2434C7.70196 93.4119 11.4331 91.9031 11.2612 99.3658C4.94036 99.0228 4.11556 92.436 4.99098 90.2434Z" fill="url(#paint10_linear_12915_30707)"/>
<path d="M16.6797 91.9531C13.2364 94.0614 10.7115 93.5889 11.7232 99.372C17.7671 98.9685 15.7902 93.5583 16.6797 91.9531Z" fill="url(#paint11_linear_12915_30707)"/>
<path d="M7.04457 79.3787C8.89666 83.1148 12.8837 82.5661 10.8887 89.7593C4.84456 87.8782 5.65865 81.29 7.04457 79.3787Z" fill="url(#paint12_linear_12915_30707)"/>
<path d="M17.9609 83.9023C14.106 85.1028 11.7739 84.0261 11.3379 89.8808C17.2965 90.9704 16.7053 85.2406 17.9609 83.9023Z" fill="url(#paint13_linear_12915_30707)"/>
<path d="M10.9693 70.6019C12.3721 74.2998 16.1863 74.1505 13.6381 80.7559C8.10677 78.4214 9.48437 72.2779 10.9693 70.6019Z" fill="url(#paint14_linear_12915_30707)"/>
<path d="M20.8555 75.8809C17.1057 76.6576 15.0039 75.4256 14.051 80.9117C19.5747 82.4911 19.5465 77.028 20.8555 75.8809Z" fill="url(#paint15_linear_12915_30707)"/>
<path d="M16.2685 61.4603C16.9845 65.1435 20.5747 65.6183 17.1284 71.3836C12.3329 68.3101 14.6103 62.7881 16.2685 61.4603Z" fill="url(#paint16_linear_12915_30707)"/>
<path d="M24.6641 67.9883C21.0331 68.1106 19.2664 66.6202 17.492 71.596C22.402 73.9623 23.2554 68.85 24.6641 67.9883Z" fill="url(#paint17_linear_12915_30707)"/>
<path d="M23.2897 55.3347C23.4049 58.3723 26.2199 59.1988 22.7441 63.3856C19.2873 60.3288 21.7971 56.1915 23.2897 55.3347Z" fill="url(#paint18_linear_12915_30707)"/>
<path d="M32.8144 53.7909C30.5789 55.8509 31.7782 58.5284 26.3372 58.6034C26.4174 53.9897 31.1936 53.2121 32.8144 53.7909Z" fill="url(#paint19_linear_12915_30707)"/>
<path d="M29.1914 61.6035C26.2695 61.2499 25.0405 59.8372 23.0013 63.5998C26.6377 66.1047 27.9566 62.1182 29.1914 61.6035Z" fill="url(#paint20_linear_12915_30707)"/>
<path d="M153.98 125.943C151.998 130.66 152.753 137.838 148.755 138.62C145.198 139.349 143.309 137.838 144.301 133.682C144.798 130.95 148.976 126.882 153.98 125.943Z" fill="url(#paint21_linear_12915_30707)"/>
<path d="M164.133 141.559C159.694 139.988 150.108 137.082 147.228 139.61C145.575 141.615 147.227 143.778 148.739 144.671C153.285 147.356 162.503 142.799 164.133 141.559Z" fill="url(#paint22_linear_12915_30707)"/>
<path d="M179.94 136.843C172.983 134.888 172.638 127.921 161.027 133.627C166.17 143.318 177.13 139.817 179.94 136.843Z" fill="url(#paint23_linear_12915_30707)"/>
<path d="M168.73 119.705C167.923 126.656 170.505 130.283 160.673 132.904C156.905 123.105 166.854 122.273 168.73 119.705Z" fill="url(#paint24_linear_12915_30707)"/>
<path d="M192.024 123.331C185.995 124.771 182.827 119.696 176.511 128.82C184.412 133.932 191.16 126.732 192.024 123.331Z" fill="url(#paint25_linear_12915_30707)"/>
<path d="M176.473 115.172C178.771 120.716 182.22 122.355 175.949 128.425C169.034 122.657 176.139 117.879 176.473 115.172Z" fill="url(#paint26_linear_12915_30707)"/>
<path d="M197.021 111.926C191.97 114.317 188.232 110.428 184.356 119.65C192.275 122.692 196.891 115.087 197.021 111.926Z" fill="url(#paint27_linear_12915_30707)"/>
<path d="M181.789 107.617C184.846 112.081 188.193 112.886 183.789 119.405C176.617 115.602 181.998 110.068 181.789 107.617Z" fill="url(#paint28_linear_12915_30707)"/>
<path d="M199.078 101.571C195.459 104.013 192.113 101.45 190.206 109.031C196.682 110.447 199.351 104.028 199.078 101.571Z" fill="url(#paint29_linear_12915_30707)"/>
<path d="M186.805 100.039C189.693 103.127 192.373 103.354 189.74 108.909C183.751 106.817 187.255 101.907 186.805 100.039Z" fill="url(#paint30_linear_12915_30707)"/>
<path d="M198.864 90.2434C196.154 93.4119 192.422 91.9031 192.594 99.3658C198.915 99.0228 199.74 92.436 198.864 90.2434Z" fill="url(#paint31_linear_12915_30707)"/>
<path d="M187.176 91.9531C190.619 94.0614 193.144 93.5889 192.132 99.372C186.088 98.9685 188.065 93.5583 187.176 91.9531Z" fill="url(#paint32_linear_12915_30707)"/>
<path d="M196.811 79.3787C194.959 83.1148 190.972 82.5661 192.967 89.7593C199.011 87.8782 198.197 81.29 196.811 79.3787Z" fill="url(#paint33_linear_12915_30707)"/>
<path d="M185.895 83.9023C189.749 85.1028 192.082 84.0261 192.518 89.8808C186.559 90.9704 187.15 85.2406 185.895 83.9023Z" fill="url(#paint34_linear_12915_30707)"/>
<path d="M192.89 70.6019C191.487 74.2998 187.673 74.1505 190.221 80.7559C195.753 78.4214 194.375 72.2779 192.89 70.6019Z" fill="url(#paint35_linear_12915_30707)"/>
<path d="M183.004 75.8809C186.754 76.6576 188.856 75.4256 189.808 80.9117C184.285 82.4911 184.313 77.028 183.004 75.8809Z" fill="url(#paint36_linear_12915_30707)"/>
<path d="M187.587 61.4603C186.871 65.1435 183.281 65.6183 186.727 71.3836C191.523 68.3101 189.245 62.7881 187.587 61.4603Z" fill="url(#paint37_linear_12915_30707)"/>
<path d="M179.195 67.9883C182.826 68.1106 184.593 66.6202 186.367 71.596C181.457 73.9623 180.604 68.85 179.195 67.9883Z" fill="url(#paint38_linear_12915_30707)"/>
<path d="M180.57 55.3347C180.454 58.3723 177.639 59.1988 181.115 63.3856C184.572 60.3288 182.062 56.1915 180.57 55.3347Z" fill="url(#paint39_linear_12915_30707)"/>
<path d="M171.041 53.7909C173.277 55.8509 172.077 58.5284 177.518 58.6034C177.438 53.9897 172.662 53.2121 171.041 53.7909Z" fill="url(#paint40_linear_12915_30707)"/>
<path d="M174.664 61.6035C177.586 61.2499 178.815 59.8372 180.854 63.5998C177.218 66.1047 175.899 62.1182 174.664 61.6035Z" fill="url(#paint41_linear_12915_30707)"/>
</g>
<defs>
<linearGradient id="paint0_linear_12915_30707" x1="54.85" y1="125.943" x2="54.85" y2="138.796" gradientUnits="userSpaceOnUse">
<stop stop-color="#D1D1D1"/>
<stop offset="1" stop-color="#555555"/>
</linearGradient>
<linearGradient id="paint1_linear_12915_30707" x1="43.5099" y1="146.281" x2="54.7582" y2="137.271" gradientUnits="userSpaceOnUse">
<stop stop-color="#D1D1D1"/>
<stop offset="1" stop-color="#555555"/>
</linearGradient>
<linearGradient id="paint2_linear_12915_30707" x1="28.546" y1="140.978" x2="38.4957" y2="129.775" gradientUnits="userSpaceOnUse">
<stop stop-color="#D1D1D1"/>
<stop offset="1" stop-color="#555555"/>
</linearGradient>
<linearGradient id="paint3_linear_12915_30707" x1="40.9872" y1="122.632" x2="37.0923" y2="130.433" gradientUnits="userSpaceOnUse">
<stop stop-color="#D1D1D1"/>
<stop offset="1" stop-color="#555555"/>
</linearGradient>
<linearGradient id="paint4_linear_12915_30707" x1="13.5713" y1="128.361" x2="25.7037" y2="124.123" gradientUnits="userSpaceOnUse">
<stop stop-color="#D1D1D1"/>
<stop offset="1" stop-color="#555555"/>
</linearGradient>
<linearGradient id="paint5_linear_12915_30707" x1="30.556" y1="119.813" x2="24.3803" y2="124.03" gradientUnits="userSpaceOnUse">
<stop stop-color="#D1D1D1"/>
<stop offset="1" stop-color="#555555"/>
</linearGradient>
<linearGradient id="paint6_linear_12915_30707" x1="7.43123" y1="116.686" x2="18.9208" y2="115.202" gradientUnits="userSpaceOnUse">
<stop stop-color="#D1D1D1"/>
<stop offset="1" stop-color="#555555"/>
</linearGradient>
<linearGradient id="paint7_linear_12915_30707" x1="24.0001" y1="112.3" x2="17.769" y2="114.873" gradientUnits="userSpaceOnUse">
<stop stop-color="#D1D1D1"/>
<stop offset="1" stop-color="#555555"/>
</linearGradient>
<linearGradient id="paint8_linear_12915_30707" x1="4.67937" y1="105.319" x2="13.73" y2="105.527" gradientUnits="userSpaceOnUse">
<stop stop-color="#D1D1D1"/>
<stop offset="1" stop-color="#555555"/>
</linearGradient>
<linearGradient id="paint9_linear_12915_30707" x1="17.9962" y1="103.884" x2="12.8793" y2="105.137" gradientUnits="userSpaceOnUse">
<stop stop-color="#D1D1D1"/>
<stop offset="1" stop-color="#555555"/>
</linearGradient>
<linearGradient id="paint10_linear_12915_30707" x1="3.94816" y1="93.6686" x2="12.2261" y2="96.1612" gradientUnits="userSpaceOnUse">
<stop stop-color="#D1D1D1"/>
<stop offset="1" stop-color="#555555"/>
</linearGradient>
<linearGradient id="paint11_linear_12915_30707" x1="16.5688" y1="95.732" x2="11.5402" y2="95.5844" gradientUnits="userSpaceOnUse">
<stop stop-color="#D1D1D1"/>
<stop offset="1" stop-color="#555555"/>
</linearGradient>
<linearGradient id="paint12_linear_12915_30707" x1="5.19437" y1="82.444" x2="12.6094" y2="86.8887" gradientUnits="userSpaceOnUse">
<stop stop-color="#D1D1D1"/>
<stop offset="1" stop-color="#555555"/>
</linearGradient>
<linearGradient id="paint13_linear_12915_30707" x1="16.9276" y1="87.5389" x2="12.0885" y2="86.1638" gradientUnits="userSpaceOnUse">
<stop stop-color="#D1D1D1"/>
<stop offset="1" stop-color="#555555"/>
</linearGradient>
<linearGradient id="paint14_linear_12915_30707" x1="8.93941" y1="73.3243" x2="15.5277" y2="78.2054" gradientUnits="userSpaceOnUse">
<stop stop-color="#D1D1D1"/>
<stop offset="1" stop-color="#555555"/>
</linearGradient>
<linearGradient id="paint15_linear_12915_30707" x1="19.5438" y1="79.218" x2="15.1032" y2="77.4726" gradientUnits="userSpaceOnUse">
<stop stop-color="#D1D1D1"/>
<stop offset="1" stop-color="#555555"/>
</linearGradient>
<linearGradient id="paint16_linear_12915_30707" x1="13.9322" y1="63.6786" x2="19.3059" y2="69.3033" gradientUnits="userSpaceOnUse">
<stop stop-color="#D1D1D1"/>
<stop offset="1" stop-color="#555555"/>
</linearGradient>
<linearGradient id="paint17_linear_12915_30707" x1="22.9003" y1="70.8971" x2="19.0296" y2="68.55" gradientUnits="userSpaceOnUse">
<stop stop-color="#D1D1D1"/>
<stop offset="1" stop-color="#555555"/>
</linearGradient>
<linearGradient id="paint18_linear_12915_30707" x1="21.1436" y1="56.8201" x2="24.746" y2="61.991" gradientUnits="userSpaceOnUse">
<stop stop-color="#D1D1D1"/>
<stop offset="1" stop-color="#555555"/>
</linearGradient>
<linearGradient id="paint19_linear_12915_30707" x1="30.2912" y1="53.1232" x2="28.6976" y2="59.2204" gradientUnits="userSpaceOnUse">
<stop stop-color="#D1D1D1"/>
<stop offset="1" stop-color="#555555"/>
</linearGradient>
<linearGradient id="paint20_linear_12915_30707" x1="27.4177" y1="63.7128" x2="24.6109" y2="61.3526" gradientUnits="userSpaceOnUse">
<stop stop-color="#D1D1D1"/>
<stop offset="1" stop-color="#555555"/>
</linearGradient>
<linearGradient id="paint21_linear_12915_30707" x1="149.009" y1="125.943" x2="149.009" y2="138.796" gradientUnits="userSpaceOnUse">
<stop stop-color="#D1D1D1"/>
<stop offset="1" stop-color="#555555"/>
</linearGradient>
<linearGradient id="paint22_linear_12915_30707" x1="160.349" y1="146.281" x2="149.101" y2="137.271" gradientUnits="userSpaceOnUse">
<stop stop-color="#D1D1D1"/>
<stop offset="1" stop-color="#555555"/>
</linearGradient>
<linearGradient id="paint23_linear_12915_30707" x1="175.313" y1="140.978" x2="165.364" y2="129.775" gradientUnits="userSpaceOnUse">
<stop stop-color="#D1D1D1"/>
<stop offset="1" stop-color="#555555"/>
</linearGradient>
<linearGradient id="paint24_linear_12915_30707" x1="162.868" y1="122.632" x2="166.763" y2="130.433" gradientUnits="userSpaceOnUse">
<stop stop-color="#D1D1D1"/>
<stop offset="1" stop-color="#555555"/>
</linearGradient>
<linearGradient id="paint25_linear_12915_30707" x1="190.284" y1="128.361" x2="178.152" y2="124.123" gradientUnits="userSpaceOnUse">
<stop stop-color="#D1D1D1"/>
<stop offset="1" stop-color="#555555"/>
</linearGradient>
<linearGradient id="paint26_linear_12915_30707" x1="173.303" y1="119.813" x2="179.479" y2="124.03" gradientUnits="userSpaceOnUse">
<stop stop-color="#D1D1D1"/>
<stop offset="1" stop-color="#555555"/>
</linearGradient>
<linearGradient id="paint27_linear_12915_30707" x1="196.42" y1="116.686" x2="184.931" y2="115.202" gradientUnits="userSpaceOnUse">
<stop stop-color="#D1D1D1"/>
<stop offset="1" stop-color="#555555"/>
</linearGradient>
<linearGradient id="paint28_linear_12915_30707" x1="179.855" y1="112.3" x2="186.086" y2="114.873" gradientUnits="userSpaceOnUse">
<stop stop-color="#D1D1D1"/>
<stop offset="1" stop-color="#555555"/>
</linearGradient>
<linearGradient id="paint29_linear_12915_30707" x1="199.176" y1="105.319" x2="190.125" y2="105.527" gradientUnits="userSpaceOnUse">
<stop stop-color="#D1D1D1"/>
<stop offset="1" stop-color="#555555"/>
</linearGradient>
<linearGradient id="paint30_linear_12915_30707" x1="185.863" y1="103.884" x2="190.98" y2="105.137" gradientUnits="userSpaceOnUse">
<stop stop-color="#D1D1D1"/>
<stop offset="1" stop-color="#555555"/>
</linearGradient>
<linearGradient id="paint31_linear_12915_30707" x1="199.907" y1="93.6686" x2="191.629" y2="96.1612" gradientUnits="userSpaceOnUse">
<stop stop-color="#D1D1D1"/>
<stop offset="1" stop-color="#555555"/>
</linearGradient>
<linearGradient id="paint32_linear_12915_30707" x1="187.287" y1="95.732" x2="192.315" y2="95.5844" gradientUnits="userSpaceOnUse">
<stop stop-color="#D1D1D1"/>
<stop offset="1" stop-color="#555555"/>
</linearGradient>
<linearGradient id="paint33_linear_12915_30707" x1="198.661" y1="82.444" x2="191.246" y2="86.8887" gradientUnits="userSpaceOnUse">
<stop stop-color="#D1D1D1"/>
<stop offset="1" stop-color="#555555"/>
</linearGradient>
<linearGradient id="paint34_linear_12915_30707" x1="186.928" y1="87.5389" x2="191.767" y2="86.1638" gradientUnits="userSpaceOnUse">
<stop stop-color="#D1D1D1"/>
<stop offset="1" stop-color="#555555"/>
</linearGradient>
<linearGradient id="paint35_linear_12915_30707" x1="194.92" y1="73.3243" x2="188.332" y2="78.2054" gradientUnits="userSpaceOnUse">
<stop stop-color="#D1D1D1"/>
<stop offset="1" stop-color="#555555"/>
</linearGradient>
<linearGradient id="paint36_linear_12915_30707" x1="184.316" y1="79.218" x2="188.756" y2="77.4726" gradientUnits="userSpaceOnUse">
<stop stop-color="#D1D1D1"/>
<stop offset="1" stop-color="#555555"/>
</linearGradient>
<linearGradient id="paint37_linear_12915_30707" x1="189.923" y1="63.6786" x2="184.55" y2="69.3033" gradientUnits="userSpaceOnUse">
<stop stop-color="#D1D1D1"/>
<stop offset="1" stop-color="#555555"/>
</linearGradient>
<linearGradient id="paint38_linear_12915_30707" x1="180.959" y1="70.8971" x2="184.83" y2="68.55" gradientUnits="userSpaceOnUse">
<stop stop-color="#D1D1D1"/>
<stop offset="1" stop-color="#555555"/>
</linearGradient>
<linearGradient id="paint39_linear_12915_30707" x1="182.716" y1="56.8201" x2="179.113" y2="61.991" gradientUnits="userSpaceOnUse">
<stop stop-color="#D1D1D1"/>
<stop offset="1" stop-color="#555555"/>
</linearGradient>
<linearGradient id="paint40_linear_12915_30707" x1="173.564" y1="53.1232" x2="175.158" y2="59.2204" gradientUnits="userSpaceOnUse">
<stop stop-color="#D1D1D1"/>
<stop offset="1" stop-color="#555555"/>
</linearGradient>
<linearGradient id="paint41_linear_12915_30707" x1="176.438" y1="63.7128" x2="179.245" y2="61.3526" gradientUnits="userSpaceOnUse">
<stop stop-color="#D1D1D1"/>
<stop offset="1" stop-color="#555555"/>
</linearGradient>
</defs>
</svg>
