<svg width="349" height="348" viewBox="0 0 349 348" fill="none" xmlns="http://www.w3.org/2000/svg">
<rect x="0.333496" width="348" height="348" rx="79" fill="#00D992"/>
<path d="M271.333 86V80.5C271.333 69.7 262.333 67 257.833 67H180.833C175.633 67 171.667 71.6054 170.333 73.9082L163.352 86L150.073 109C146.265 115.596 141.728 113 139.419 109L130.181 93C128.941 90.8514 127.203 89.3211 125.333 88.2509C122.331 86.5318 118.991 86 116.833 86H90.3335C80.8335 86 77.3335 95 77.3335 99V164V172.5C77.3335 176 81.0335 183 87.8335 183H107.349H125.333V267.5C125.333 273.5 127.433 281 137.833 281H215.833C222.333 281 233.527 272 225.733 258.5L182.143 183L176.333 172.938C174.349 169.5 174.833 164 180.833 164H259.833C264.333 164 271.333 160.1 271.333 152.5V86Z" fill="#060F11"/>
</svg>
